<?xml version="1.0" encoding="utf-8"?>
<!-- Generator: Adobe Illustrator 22.0.0, SVG Export Plug-In . SVG Version: 6.00 Build 0)  -->
<svg version="1.1" xmlns="http://www.w3.org/2000/svg" xmlns:xlink="http://www.w3.org/1999/xlink" x="0px" y="0px"
	 viewBox="0 0 99.2 99.2" style="enable-background:new 0 0 99.2 99.2;" xml:space="preserve">
<style type="text/css">
	.st0{fill:#C5C7C9;}
	.st1{fill:#FFFFFF;}
	.st2{fill:url(#SVGID_1_);}
	.st3{fill:url(#SVGID_2_);}
	.st4{fill:url(#SVGID_3_);}
	.st5{fill:url(#SVGID_4_);}
	.st6{fill:url(#SVGID_5_);}
	.st7{fill:url(#SVGID_6_);}
</style>
<g id="Layer_1">
</g>
<g id="Layer_2">
	<g>
		<path class="st0" d="M92.1,93.7c0,2.9-14.6,5.2-32.5,5.2c-18,0-32.5-2.3-32.5-5.2c0-2.9,14.6-5.2,32.5-5.2
			C77.6,88.5,92.1,90.8,92.1,93.7z"/>
		<g>
			<path class="st1" d="M98.8,49.6c0,27.2-22,49.2-49.2,49.2c-27.2,0-49.2-22-49.2-49.2c0-27.2,22-49.2,49.2-49.2
				C76.8,0.4,98.8,22.4,98.8,49.6z"/>
			<path class="st0" d="M49.6,99.2C22.3,99.2,0,77,0,49.6C0,22.3,22.3,0,49.6,0C77,0,99.2,22.3,99.2,49.6C99.2,77,77,99.2,49.6,99.2
				z M49.6,0.8C22.7,0.8,0.8,22.7,0.8,49.6c0,26.9,21.9,48.8,48.8,48.8c26.9,0,48.8-21.9,48.8-48.8C98.4,22.7,76.5,0.8,49.6,0.8z"/>
		</g>
		<radialGradient id="SVGID_1_" cx="73.9547" cy="22.2873" r="62.7723" gradientUnits="userSpaceOnUse">
			<stop  offset="8.771930e-03" style="stop-color:#20B6EA"/>
			<stop  offset="0.6818" style="stop-color:#005B95"/>
		</radialGradient>
		<path class="st2" d="M90.3,49.3c0,22.3-18.1,40.4-40.4,40.4S9.4,71.6,9.4,49.3c0-5.9,1.3-11.5,3.6-16.6
			C19.3,18.6,33.5,8.8,49.9,8.8c16.4,0,30.6,9.8,36.9,23.8C89.1,37.7,90.3,43.3,90.3,49.3z"/>
		<path class="st1" d="M52.6,35.6c0-3,2.6-2.6,2.6-2.6h8.1v-9H51.1c-9.2,0-9.4,10.1-9.4,10.1V41v0l-5.2,0v8.2h5.2v25.2h10.9V49.3
			h10.6v-8.4l-10.6,0.1v-0.1C52.6,40.9,52.6,38.6,52.6,35.6z"/>
		<path class="st1" d="M20.2,32.5c0,1.1-0.9,1.9-1.9,1.9c-1.1,0-1.9-0.9-1.9-1.9s0.9-1.9,1.9-1.9C19.3,30.5,20.2,31.4,20.2,32.5z"/>
		<linearGradient id="SVGID_2_" gradientUnits="userSpaceOnUse" x1="28.6835" y1="22.7716" x2="21.7644" y2="34.3035">
			<stop  offset="0.5393" style="stop-color:#FFFFFF"/>
			<stop  offset="1" style="stop-color:#00ADC4"/>
		</linearGradient>
		<path class="st3" d="M39.7,13.6c0.8,0.9-0.4,1.5-1.8,2.1c-1.6,0.6-5.2,2.1-9,5.2c-3.4,2.8-4.4,4.1-5.3,5.2
			c-1.5,1.9-2.3,3.4-3.4,2.7c-1.6-1.1,2.3-6.5,7.6-10.3C34.3,13.8,39,12.7,39.7,13.6z"/>
	</g>
</g>
<g id="Layer_3">
</g>
</svg>
