<?xml version="1.0" encoding="utf-8"?>
<!-- Generator: Adobe Illustrator 22.0.0, SVG Export Plug-In . SVG Version: 6.00 Build 0)  -->
<svg version="1.1" xmlns="http://www.w3.org/2000/svg" xmlns:xlink="http://www.w3.org/1999/xlink" x="0px" y="0px"
	 viewBox="0 0 99.2 99.2" style="enable-background:new 0 0 99.2 99.2;" xml:space="preserve">
<style type="text/css">
	.st0{fill:#C5C7C9;}
	.st1{fill:#FFFFFF;}
	.st2{fill:url(#SVGID_1_);}
	.st3{fill:url(#SVGID_2_);}
	.st4{fill:url(#SVGID_3_);}
	.st5{fill:url(#SVGID_4_);}
	.st6{fill:url(#SVGID_5_);}
	.st7{fill:url(#SVGID_6_);}
</style>
<g id="Layer_1">
</g>
<g id="Layer_2">
	<g>
		<path class="st0" d="M92.1,93.7c0,2.9-14.6,5.2-32.5,5.2c-18,0-32.5-2.3-32.5-5.2c0-2.9,14.6-5.2,32.5-5.2
			C77.6,88.5,92.1,90.8,92.1,93.7z"/>
		<g>
			<path class="st1" d="M98.8,49.6c0,27.2-22,49.2-49.2,49.2c-27.2,0-49.2-22-49.2-49.2c0-27.2,22-49.2,49.2-49.2
				C76.8,0.4,98.8,22.4,98.8,49.6z"/>
			<path class="st0" d="M49.6,99.2C22.3,99.2,0,77,0,49.6C0,22.3,22.3,0,49.6,0C77,0,99.2,22.3,99.2,49.6C99.2,77,77,99.2,49.6,99.2
				z M49.6,0.8C22.7,0.8,0.8,22.7,0.8,49.6c0,26.9,21.9,48.8,48.8,48.8c26.9,0,48.8-21.9,48.8-48.8C98.4,22.7,76.5,0.8,49.6,0.8z"/>
		</g>
		<linearGradient id="SVGID_1_" gradientUnits="userSpaceOnUse" x1="75.6578" y1="16.7226" x2="25.7479" y2="79.7041">
			<stop  offset="0" style="stop-color:#49489C"/>
			<stop  offset="0.2157" style="stop-color:#84479A"/>
			<stop  offset="0.3509" style="stop-color:#A54699"/>
			<stop  offset="0.4055" style="stop-color:#A94392"/>
			<stop  offset="0.4831" style="stop-color:#B33C80"/>
			<stop  offset="0.574" style="stop-color:#C33161"/>
			<stop  offset="0.6599" style="stop-color:#D6233E"/>
			<stop  offset="0.9786" style="stop-color:#F9A325"/>
		</linearGradient>
		<path class="st2" d="M89.8,49.3c0,22.4-17.9,40.6-39.9,40.6c-22,0-39.9-18.2-39.9-40.6c0-5.9,1.3-11.6,3.5-16.7
			C19.7,18.5,33.7,8.6,49.9,8.6c16.2,0,30.2,9.8,36.4,23.9C88.5,37.7,89.8,43.3,89.8,49.3z"/>
		<g>
			<g>
				<path class="st1" d="M62.1,70.7H37.7c-5,0-9.2-4-9.2-8.9V36.7c0-4.9,4.1-8.9,9.2-8.9h24.4c5,0,9.2,4,9.2,8.9v25.1
					C71.2,66.7,67.1,70.7,62.1,70.7z M37.7,31.4c-3,0-5.5,2.4-5.5,5.3v25.1c0,2.9,2.5,5.3,5.5,5.3h24.4c3,0,5.5-2.4,5.5-5.3V36.7
					c0-2.9-2.5-5.3-5.5-5.3H37.7z"/>
			</g>
			<g>
				<path class="st1" d="M49.9,60.4c-6.1,0-11.2-5-11.2-11.2c0-6.2,5-11.2,11.2-11.2c6.2,0,11.2,5,11.2,11.2
					C61,55.4,56,60.4,49.9,60.4z M49.9,41.8c-4.1,0-7.5,3.4-7.5,7.5c0,4.1,3.4,7.5,7.5,7.5c4.1,0,7.5-3.4,7.5-7.5
					C57.3,45.1,54,41.8,49.9,41.8z"/>
			</g>
			<path class="st1" d="M64.5,37.5c0,1.4-1.2,2.6-2.6,2.6c-1.4,0-2.6-1.2-2.6-2.6c0-1.4,1.2-2.6,2.6-2.6
				C63.3,34.9,64.5,36.1,64.5,37.5z"/>
		</g>
		<path class="st1" d="M20.2,32.5c0,1.1-0.9,1.9-1.9,1.9c-1.1,0-1.9-0.9-1.9-1.9s0.9-1.9,1.9-1.9C19.3,30.5,20.2,31.4,20.2,32.5z"/>
		<linearGradient id="SVGID_2_" gradientUnits="userSpaceOnUse" x1="28.684" y1="22.7716" x2="21.7648" y2="34.3035">
			<stop  offset="0.5393" style="stop-color:#FFFFFF"/>
			<stop  offset="1" style="stop-color:#00ADC4"/>
		</linearGradient>
		<path class="st3" d="M39.7,13.6c0.8,0.9-0.4,1.5-1.8,2.1c-1.6,0.6-5.2,2.1-9,5.2c-3.4,2.8-4.4,4.1-5.3,5.2
			c-1.5,1.9-2.3,3.4-3.4,2.7c-1.6-1.1,2.3-6.5,7.6-10.3C34.3,13.8,39,12.7,39.7,13.6z"/>
	</g>
</g>
<g id="Layer_3">
</g>
</svg>
