<?xml version="1.0" encoding="utf-8"?>
<!-- Generator: Adobe Illustrator 22.0.0, SVG Export Plug-In . SVG Version: 6.00 Build 0)  -->
<svg version="1.1" xmlns="http://www.w3.org/2000/svg" xmlns:xlink="http://www.w3.org/1999/xlink" x="0px" y="0px"
	 viewBox="0 0 99.2 99.2" style="enable-background:new 0 0 99.2 99.2;" xml:space="preserve">
<style type="text/css">
	.st0{fill:#C5C7C9;}
	.st1{fill:#FFFFFF;}
	.st2{fill:url(#SVGID_1_);}
	.st3{fill:url(#SVGID_2_);}
	.st4{fill:url(#SVGID_3_);}
	.st5{fill:url(#SVGID_4_);}
	.st6{fill:url(#SVGID_5_);}
	.st7{fill:url(#SVGID_6_);}
</style>
<g id="Layer_1">
</g>
<g id="Layer_2">
	<g>
		<path class="st0" d="M92.1,93.7c0,2.9-14.6,5.2-32.5,5.2c-18,0-32.5-2.3-32.5-5.2c0-2.9,14.6-5.2,32.5-5.2
			C77.6,88.5,92.1,90.8,92.1,93.7z"/>
		<g>
			<path class="st1" d="M98.8,49.6c0,27.2-22,49.2-49.2,49.2c-27.2,0-49.2-22-49.2-49.2c0-27.2,22-49.2,49.2-49.2
				C76.8,0.4,98.8,22.4,98.8,49.6z"/>
			<path class="st0" d="M49.6,99.2C22.3,99.2,0,77,0,49.6C0,22.3,22.3,0,49.6,0C77,0,99.2,22.3,99.2,49.6C99.2,77,77,99.2,49.6,99.2
				z M49.6,0.8C22.7,0.8,0.8,22.7,0.8,49.6c0,26.9,21.9,48.8,48.8,48.8c26.9,0,48.8-21.9,48.8-48.8C98.4,22.7,76.5,0.8,49.6,0.8z"/>
		</g>
		<linearGradient id="SVGID_1_" gradientUnits="userSpaceOnUse" x1="27.2955" y1="77.4073" x2="70.5896" y2="23.4341">
			<stop  offset="0" style="stop-color:#059AD3"/>
			<stop  offset="1" style="stop-color:#00B1E3"/>
		</linearGradient>
		<path class="st2" d="M90.3,49.3c0,22.3-18.1,40.4-40.4,40.4S9.5,71.6,9.5,49.3c0-5.9,1.3-11.5,3.6-16.6
			c6.3-14,20.4-23.8,36.8-23.8c16.4,0,30.5,9.8,36.8,23.8C89,37.7,90.3,43.3,90.3,49.3z"/>
		<path class="st1" d="M70.8,34.2c0,0,4.1-3.3,4.4-6.1l-7,2.7c0,0-3.9-4.8-11.1-3.1c-7.2,1.7-8.7,9.7-7.9,13c0,0-12.5,0.2-22.7-11.4
			c0,0-5,8.3,3.6,14.7c0,0-4.1-0.3-5-1.3c0,0-0.4,8.7,9,10.9c0,0-2.2,0.8-5.1,0.5c0,0,2.4,7.2,10.3,7.4c0,0-7.2,6-16.5,4.6
			c0,0,9.8,7.2,23.2,4.4c0.6-0.1,1.3-0.3,1.9-0.5c8.5-2.6,15.8-8.1,19.9-16c0.3-0.5,0.5-1.1,0.8-1.6c1.8-3.9,3-8.7,2.8-14.2
			c0,0,4.2-2.9,5.5-5.6C76.9,32.5,74.2,33.8,70.8,34.2z"/>
		<path class="st1" d="M20.2,32.5c0,1.1-0.9,1.9-1.9,1.9c-1.1,0-1.9-0.9-1.9-1.9c0-1.1,0.9-1.9,1.9-1.9
			C19.3,30.5,20.2,31.4,20.2,32.5z"/>
		<linearGradient id="SVGID_2_" gradientUnits="userSpaceOnUse" x1="28.6837" y1="22.772" x2="21.7647" y2="34.3037">
			<stop  offset="0.5393" style="stop-color:#FFFFFF"/>
			<stop  offset="1" style="stop-color:#00ADC4"/>
		</linearGradient>
		<path class="st3" d="M39.7,13.6c0.8,0.9-0.4,1.5-1.8,2.1c-1.6,0.6-5.2,2.1-9,5.2c-3.4,2.8-4.4,4.1-5.3,5.2
			c-1.5,1.9-2.3,3.4-3.4,2.7c-1.6-1.1,2.3-6.5,7.6-10.3C34.3,13.8,39,12.7,39.7,13.6z"/>
	</g>
</g>
<g id="Layer_3">
</g>
</svg>
